<svg xmlns="http://www.w3.org/2000/svg" viewBox="0 0 425.8 88.1">
  <title>holtehobby-logo-white-new-orange</title>
  <g>
    <path d="M19.8,42.81c-6.68,0-10,2.88-12.2,5.21V32.27H0V76.83H7.6V54.15C9.5,51.82,12,49.3,18,49.3c5.09,0,7.05,2.76,7.05,9.26V76.83h7.6V55.74c0-10.05-6-12.93-12.87-12.93" fill="#fff"/>
    <path d="M56,42.81c-13.11,0-18.45,8.7-18.45,17.53C37.51,73.45,47,77.93,56,77.93s18.45-4.48,18.45-17.59c0-8.83-5.33-17.53-18.45-17.53m0,28.62c-6.8,0-10.72-4.23-10.72-11.22,0-7.72,4.9-10.91,10.72-10.91s10.73,3.19,10.73,10.91c0,7-3.92,11.22-10.73,11.22" fill="#fff"/>
    <rect x="79.87" y="32.26" width="7.6" height="44.56" fill="#fff"/>
    <path d="M105,66.59V51.51h11.46V45H105V34.29H97.4V45H91.51v6.5H97.4V68.37c0,7.23,4,9.56,11.21,9.56a57,57,0,0,0,8.22-.74V70.51a30.15,30.15,0,0,1-6.5.92c-4.41,0-5.33-2.51-5.33-4.84" fill="#fff"/>
    <path d="M137.36,42.81c-12.13,0-18.26,8.15-18.26,17.47,0,10.29,7.05,17.65,18.81,17.65,12.2,0,16.61-8.28,17.17-11h-8.34c-1.1,2.57-4.29,4.84-9.07,4.84-9.38-.37-10.54-7.23-10.85-9.32h28.87c0-11.89-5.95-19.55-18.33-19.67M127.06,56.6c1.54-6.31,6.13-7.66,10.12-7.66,5.45,0,9.25,2.08,10.42,7.66Z" fill="#fff"/>
    <path d="M201.41,42.81c-6.68,0-10,2.88-12.19,5.21V32.27h-7.6V76.83h7.6V54.15c1.9-2.33,4.35-4.85,10.42-4.85,5.08,0,7,2.76,7,9.26V76.83h7.61V55.74c0-10.05-6-12.93-12.88-12.93" fill="#fff"/>
    <path d="M237.58,42.81c-13.12,0-18.45,8.7-18.45,17.53,0,13.11,9.44,17.59,18.45,17.59S256,73.45,256,60.34c0-8.83-5.33-17.53-18.45-17.53m0,28.62c-6.8,0-10.73-4.23-10.73-11.22,0-7.72,4.91-10.91,10.73-10.91s10.73,3.19,10.73,10.91c0,7-3.93,11.22-10.73,11.22" fill="#fff"/>
    <path d="M281.4,42.81c-6.31,0-9.37,2.2-12.62,4.53V32.27h-7.6V76.83h7.48V72.6a17.16,17.16,0,0,0,13,5.33c9.32,0,17.35-6.62,17.35-17.78,0-10-6.81-17.34-17.66-17.34M280,71.43c-5.2,0-8.27-2.51-11.21-4.78V53.84c2.33-1.9,5.45-4.54,11-4.54,5.82,0,11.58,3.68,11.58,11.1,0,7.23-5.45,11-11.34,11" fill="#fff"/>
    <path d="M324.43,42.81c-6.31,0-9.37,2.2-12.62,4.53V32.27h-7.6V76.83h7.47V72.6a17.21,17.21,0,0,0,13.06,5.33c9.32,0,17.35-6.62,17.35-17.78,0-10-6.81-17.34-17.66-17.34M323,71.43c-5.21,0-8.27-2.51-11.21-4.78V53.84c2.33-1.9,5.45-4.54,11-4.54,5.82,0,11.58,3.68,11.58,11.1,0,7.23-5.45,11-11.34,11" fill="#fff"/>
    <path d="M400.57,37.35a29.87,29.87,0,0,1,1.56,13.89H410a37.61,37.61,0,0,0-2.09-16.56,37.17,37.17,0,0,0-19.41-21.21l-3.3,7.1a29.42,29.42,0,0,1,15.36,16.78" fill="#ff9800"/>
    <path d="M417.88,51.24h7.83A53.39,53.39,0,0,0,394.77,0l-3.3,7.1a45.55,45.55,0,0,1,26.41,44.14" fill="#ff9800"/>
    <path d="M386.2,42.71a14.31,14.31,0,0,1,.43,8.53h8A22.33,22.33,0,0,0,382,27.46l-3.3,7.1a14.36,14.36,0,0,1,7.49,8.15" fill="#ff9800"/>
    <path d="M375.11,42.27,363.17,67.94,352,43.91h-8.34l13.18,27.15a11.13,11.13,0,0,1,1.35,5.15c0,2.51-2.09,5.15-8.34,5.15a18.25,18.25,0,0,1-4.66-.73v6.49a20.36,20.36,0,0,0,6.62,1c6,0,10.79-2.45,13.73-8.64,0,0,12.65-26.28,13.56-28.19s.66-6.72-4-9" fill="#fff"/>
  </g>
</svg>
